<mxfile host="embed.diagrams.net" modified="2023-09-18T14:11:46.764Z" agent="Mozilla/5.0 (Windows NT 10.0; Win64; x64; rv:109.0) Gecko/20100101 Firefox/117.0" etag="KAB4GAxtmNCQniOWm7PN" version="21.7.5" type="embed">
  <diagram id="MxsVenoUJp_Qgdk7lJyY" name="Seite-1">
    <mxGraphModel grid="1" page="1" gridSize="10" guides="1" tooltips="1" connect="1" arrows="1" fold="1" pageScale="1" pageWidth="827" pageHeight="1169" math="0" shadow="0">
      <root>
        <mxCell id="0" />
        <mxCell id="1" parent="0" />
        <mxCell id="6d4hopXyQRGvVCkQvCx1-1" value="&lt;div&gt;:AnalyseView&lt;/div&gt;" style="shape=umlLifeline;perimeter=lifelinePerimeter;whiteSpace=wrap;html=1;container=1;dropTarget=0;collapsible=0;recursiveResize=0;outlineConnect=0;portConstraint=eastwest;newEdgeStyle={&quot;curved&quot;:0,&quot;rounded&quot;:0};fillColor=#f8cecc;strokeColor=#b85450;" vertex="1" parent="1">
          <mxGeometry x="170" y="110" width="140" height="530" as="geometry" />
        </mxCell>
        <mxCell id="1_xwEEq7RUY1qvf05ioq-4" value="updateTestStatus(testName : String, state : State)" style="html=1;align=left;spacingLeft=2;endArrow=block;rounded=0;edgeStyle=orthogonalEdgeStyle;curved=0;rounded=0;entryX=1;entryY=0;entryDx=0;entryDy=5;entryPerimeter=0;" edge="1" parent="6d4hopXyQRGvVCkQvCx1-1" target="1_xwEEq7RUY1qvf05ioq-12">
          <mxGeometry relative="1" as="geometry">
            <mxPoint x="75" y="370" as="sourcePoint" />
            <Array as="points">
              <mxPoint x="100" y="370" />
              <mxPoint x="100" y="395" />
            </Array>
            <mxPoint x="85" y="400" as="targetPoint" />
          </mxGeometry>
        </mxCell>
        <mxCell id="1_xwEEq7RUY1qvf05ioq-5" value="" style="html=1;points=[[0,0,0,0,5],[0,1,0,0,-5],[1,0,0,0,5],[1,1,0,0,-5]];perimeter=orthogonalPerimeter;outlineConnect=0;targetShapes=umlLifeline;portConstraint=eastwest;newEdgeStyle={&quot;curved&quot;:0,&quot;rounded&quot;:0};" vertex="1" parent="6d4hopXyQRGvVCkQvCx1-1">
          <mxGeometry x="65" y="60" width="10" height="180" as="geometry" />
        </mxCell>
        <mxCell id="1_xwEEq7RUY1qvf05ioq-6" value="" style="html=1;points=[[0,0,0,0,5],[0,1,0,0,-5],[1,0,0,0,5],[1,1,0,0,-5]];perimeter=orthogonalPerimeter;outlineConnect=0;targetShapes=umlLifeline;portConstraint=eastwest;newEdgeStyle={&quot;curved&quot;:0,&quot;rounded&quot;:0};" vertex="1" parent="6d4hopXyQRGvVCkQvCx1-1">
          <mxGeometry x="65" y="350" width="10" height="70" as="geometry" />
        </mxCell>
        <mxCell id="1_xwEEq7RUY1qvf05ioq-12" value="" style="html=1;points=[[0,0,0,0,5],[0,1,0,0,-5],[1,0,0,0,5],[1,1,0,0,-5]];perimeter=orthogonalPerimeter;outlineConnect=0;targetShapes=umlLifeline;portConstraint=eastwest;newEdgeStyle={&quot;curved&quot;:0,&quot;rounded&quot;:0};" vertex="1" parent="6d4hopXyQRGvVCkQvCx1-1">
          <mxGeometry x="75" y="390" width="10" height="20" as="geometry" />
        </mxCell>
        <mxCell id="1_xwEEq7RUY1qvf05ioq-16" value="updateTestStatus(testName : String, state : State)" style="html=1;align=left;spacingLeft=2;endArrow=block;rounded=0;edgeStyle=orthogonalEdgeStyle;curved=0;rounded=0;entryX=1;entryY=0;entryDx=0;entryDy=5;entryPerimeter=0;" edge="1" parent="6d4hopXyQRGvVCkQvCx1-1" target="1_xwEEq7RUY1qvf05ioq-18">
          <mxGeometry relative="1" as="geometry">
            <mxPoint x="75" y="459" as="sourcePoint" />
            <Array as="points">
              <mxPoint x="100" y="459" />
              <mxPoint x="100" y="484" />
            </Array>
            <mxPoint x="85" y="489" as="targetPoint" />
          </mxGeometry>
        </mxCell>
        <mxCell id="1_xwEEq7RUY1qvf05ioq-17" value="" style="html=1;points=[[0,0,0,0,5],[0,1,0,0,-5],[1,0,0,0,5],[1,1,0,0,-5]];perimeter=orthogonalPerimeter;outlineConnect=0;targetShapes=umlLifeline;portConstraint=eastwest;newEdgeStyle={&quot;curved&quot;:0,&quot;rounded&quot;:0};" vertex="1" parent="6d4hopXyQRGvVCkQvCx1-1">
          <mxGeometry x="65" y="439" width="10" height="70" as="geometry" />
        </mxCell>
        <mxCell id="1_xwEEq7RUY1qvf05ioq-18" value="" style="html=1;points=[[0,0,0,0,5],[0,1,0,0,-5],[1,0,0,0,5],[1,1,0,0,-5]];perimeter=orthogonalPerimeter;outlineConnect=0;targetShapes=umlLifeline;portConstraint=eastwest;newEdgeStyle={&quot;curved&quot;:0,&quot;rounded&quot;:0};" vertex="1" parent="6d4hopXyQRGvVCkQvCx1-1">
          <mxGeometry x="75" y="479" width="10" height="20" as="geometry" />
        </mxCell>
        <mxCell id="6d4hopXyQRGvVCkQvCx1-2" value=":ConfigurationBuilder" style="shape=umlLifeline;perimeter=lifelinePerimeter;whiteSpace=wrap;html=1;container=1;dropTarget=0;collapsible=0;recursiveResize=0;outlineConnect=0;portConstraint=eastwest;newEdgeStyle={&quot;curved&quot;:0,&quot;rounded&quot;:0};fillColor=#f8cecc;strokeColor=#b85450;" vertex="1" parent="1">
          <mxGeometry x="360" y="110" width="140" height="530" as="geometry" />
        </mxCell>
        <mxCell id="1_xwEEq7RUY1qvf05ioq-19" value="" style="html=1;points=[[0,0,0,0,5],[0,1,0,0,-5],[1,0,0,0,5],[1,1,0,0,-5]];perimeter=orthogonalPerimeter;outlineConnect=0;targetShapes=umlLifeline;portConstraint=eastwest;newEdgeStyle={&quot;curved&quot;:0,&quot;rounded&quot;:0};" vertex="1" parent="6d4hopXyQRGvVCkQvCx1-2">
          <mxGeometry x="65" y="190" width="10" height="20" as="geometry" />
        </mxCell>
        <mxCell id="6d4hopXyQRGvVCkQvCx1-3" value=":KafkaController" style="shape=umlLifeline;perimeter=lifelinePerimeter;whiteSpace=wrap;html=1;container=1;dropTarget=0;collapsible=0;recursiveResize=0;outlineConnect=0;portConstraint=eastwest;newEdgeStyle={&quot;curved&quot;:0,&quot;rounded&quot;:0};fillColor=#f8cecc;strokeColor=#b85450;" vertex="1" parent="1">
          <mxGeometry x="550" y="110" width="140" height="530" as="geometry" />
        </mxCell>
        <mxCell id="6d4hopXyQRGvVCkQvCx1-5" value="" style="html=1;points=[[0,0,0,0,5],[0,1,0,0,-5],[1,0,0,0,5],[1,1,0,0,-5]];perimeter=orthogonalPerimeter;outlineConnect=0;targetShapes=umlLifeline;portConstraint=eastwest;newEdgeStyle={&quot;curved&quot;:0,&quot;rounded&quot;:0};" vertex="1" parent="6d4hopXyQRGvVCkQvCx1-3">
          <mxGeometry x="70" y="70" width="10" height="440" as="geometry" />
        </mxCell>
        <mxCell id="6d4hopXyQRGvVCkQvCx1-4" value=":Kafka" style="shape=umlLifeline;perimeter=lifelinePerimeter;whiteSpace=wrap;html=1;container=1;dropTarget=0;collapsible=0;recursiveResize=0;outlineConnect=0;portConstraint=eastwest;newEdgeStyle={&quot;curved&quot;:0,&quot;rounded&quot;:0};fillColor=#d5e8d4;strokeColor=#82b366;" vertex="1" parent="1">
          <mxGeometry x="940" y="110" width="140" height="530" as="geometry" />
        </mxCell>
        <mxCell id="6d4hopXyQRGvVCkQvCx1-6" value="startStatusConsumer(messageConsumer : Consumer&amp;lt;String&amp;gt;)" style="html=1;verticalAlign=bottom;endArrow=block;curved=0;rounded=0;entryX=0;entryY=0;entryDx=0;entryDy=5;" edge="1" parent="1" source="6d4hopXyQRGvVCkQvCx1-1" target="6d4hopXyQRGvVCkQvCx1-5">
          <mxGeometry relative="1" as="geometry">
            <mxPoint x="550" y="185" as="sourcePoint" />
          </mxGeometry>
        </mxCell>
        <mxCell id="6d4hopXyQRGvVCkQvCx1-7" value="updateStatus(&quot;success&quot;)" style="html=1;verticalAlign=bottom;endArrow=open;dashed=1;endSize=8;curved=0;rounded=0;exitX=0;exitY=1;exitDx=0;exitDy=-5;" edge="1" parent="1">
          <mxGeometry relative="1" as="geometry">
            <mxPoint x="239.72736842105272" y="549.9999999999964" as="targetPoint" />
            <mxPoint x="620.28" y="549.9999999999964" as="sourcePoint" />
          </mxGeometry>
        </mxCell>
        <mxCell id="6d4hopXyQRGvVCkQvCx1-10" value=":StatusConsumer" style="shape=umlLifeline;perimeter=lifelinePerimeter;whiteSpace=wrap;html=1;container=1;dropTarget=0;collapsible=0;recursiveResize=0;outlineConnect=0;portConstraint=eastwest;newEdgeStyle={&quot;curved&quot;:0,&quot;rounded&quot;:0};" vertex="1" parent="1">
          <mxGeometry x="710" y="170" width="140" height="470" as="geometry" />
        </mxCell>
        <mxCell id="6d4hopXyQRGvVCkQvCx1-13" value="&lt;div&gt;consumer.poll(timeoutMs : 100)&lt;/div&gt;" style="html=1;align=left;spacingLeft=2;endArrow=open;rounded=0;edgeStyle=orthogonalEdgeStyle;curved=0;rounded=0;endFill=0;" edge="1" parent="6d4hopXyQRGvVCkQvCx1-10" target="6d4hopXyQRGvVCkQvCx1-17">
          <mxGeometry relative="1" as="geometry">
            <mxPoint x="75" y="69.98" as="sourcePoint" />
            <Array as="points">
              <mxPoint x="105" y="70" />
              <mxPoint x="105" y="100" />
            </Array>
            <mxPoint x="80" y="99.98" as="targetPoint" />
          </mxGeometry>
        </mxCell>
        <mxCell id="6d4hopXyQRGvVCkQvCx1-17" value="" style="html=1;points=[[0,0,0,0,5],[0,1,0,0,-5],[1,0,0,0,5],[1,1,0,0,-5]];perimeter=orthogonalPerimeter;outlineConnect=0;targetShapes=umlLifeline;portConstraint=eastwest;newEdgeStyle={&quot;curved&quot;:0,&quot;rounded&quot;:0};" vertex="1" parent="6d4hopXyQRGvVCkQvCx1-10">
          <mxGeometry x="65" y="60" width="10" height="50" as="geometry" />
        </mxCell>
        <mxCell id="6d4hopXyQRGvVCkQvCx1-47" value="" style="html=1;points=[[0,0,0,0,5],[0,1,0,0,-5],[1,0,0,0,5],[1,1,0,0,-5]];perimeter=orthogonalPerimeter;outlineConnect=0;targetShapes=umlLifeline;portConstraint=eastwest;newEdgeStyle={&quot;curved&quot;:0,&quot;rounded&quot;:0};" vertex="1" parent="6d4hopXyQRGvVCkQvCx1-10">
          <mxGeometry x="65" y="250" width="10" height="20" as="geometry" />
        </mxCell>
        <mxCell id="6d4hopXyQRGvVCkQvCx1-11" value="initialize" style="endArrow=open;endSize=12;dashed=1;html=1;rounded=0;" edge="1" parent="1">
          <mxGeometry width="160" relative="1" as="geometry">
            <mxPoint x="630" y="190" as="sourcePoint" />
            <mxPoint x="710" y="190" as="targetPoint" />
          </mxGeometry>
        </mxCell>
        <mxCell id="6d4hopXyQRGvVCkQvCx1-14" value="loop" style="shape=umlFrame;whiteSpace=wrap;html=1;pointerEvents=0;" vertex="1" parent="1">
          <mxGeometry x="540" y="220" width="440" height="70" as="geometry" />
        </mxCell>
        <mxCell id="6d4hopXyQRGvVCkQvCx1-22" value="buildConfig(conf : Map&amp;lt;String, ComboBox&amp;gt; : String" style="html=1;verticalAlign=bottom;endArrow=block;curved=0;rounded=0;" edge="1" parent="1" source="1_xwEEq7RUY1qvf05ioq-5">
          <mxGeometry x="-0.0499" y="10" relative="1" as="geometry">
            <mxPoint x="250" y="300" as="sourcePoint" />
            <mxPoint x="430" y="300" as="targetPoint" />
            <mxPoint as="offset" />
          </mxGeometry>
        </mxCell>
        <mxCell id="6d4hopXyQRGvVCkQvCx1-23" value="return JSON String" style="html=1;verticalAlign=bottom;endArrow=open;dashed=1;endSize=8;curved=0;rounded=0;" edge="1" parent="1" target="1_xwEEq7RUY1qvf05ioq-5">
          <mxGeometry relative="1" as="geometry">
            <mxPoint x="430" y="320" as="sourcePoint" />
            <mxPoint x="250" y="320" as="targetPoint" />
          </mxGeometry>
        </mxCell>
        <mxCell id="6d4hopXyQRGvVCkQvCx1-24" value="distributeConfiguration(config : String)" style="html=1;verticalAlign=bottom;endArrow=block;curved=0;rounded=0;" edge="1" parent="1" source="1_xwEEq7RUY1qvf05ioq-5">
          <mxGeometry x="0.0013" relative="1" as="geometry">
            <mxPoint x="250" y="340" as="sourcePoint" />
            <mxPoint x="619.7500000000002" y="340" as="targetPoint" />
            <mxPoint as="offset" />
          </mxGeometry>
        </mxCell>
        <mxCell id="6d4hopXyQRGvVCkQvCx1-25" value="producer.send(liquid_config : String)" style="html=1;verticalAlign=bottom;endArrow=block;curved=0;rounded=0;" edge="1" parent="1">
          <mxGeometry x="0.0013" relative="1" as="geometry">
            <mxPoint x="630" y="360" as="sourcePoint" />
            <mxPoint x="1009.5000000000002" y="360" as="targetPoint" />
            <mxPoint as="offset" />
          </mxGeometry>
        </mxCell>
        <mxCell id="6d4hopXyQRGvVCkQvCx1-31" value=":AlgorithmComponent" style="shape=umlLifeline;perimeter=lifelinePerimeter;whiteSpace=wrap;html=1;container=1;dropTarget=0;collapsible=0;recursiveResize=0;outlineConnect=0;portConstraint=eastwest;newEdgeStyle={&quot;curved&quot;:0,&quot;rounded&quot;:0};fillColor=#dae8fc;strokeColor=#6c8ebf;" vertex="1" parent="1">
          <mxGeometry x="1160" y="110" width="140" height="530" as="geometry" />
        </mxCell>
        <mxCell id="6d4hopXyQRGvVCkQvCx1-36" value="executeAnalysis" style="html=1;align=left;spacingLeft=2;endArrow=block;rounded=0;edgeStyle=orthogonalEdgeStyle;curved=0;rounded=0;" edge="1" parent="6d4hopXyQRGvVCkQvCx1-31" target="1_xwEEq7RUY1qvf05ioq-13">
          <mxGeometry relative="1" as="geometry">
            <mxPoint x="73" y="290" as="sourcePoint" />
            <Array as="points">
              <mxPoint x="100" y="290" />
              <mxPoint x="100" y="310" />
            </Array>
            <mxPoint x="78" y="320" as="targetPoint" />
          </mxGeometry>
        </mxCell>
        <mxCell id="6d4hopXyQRGvVCkQvCx1-41" value="" style="html=1;points=[[0,0,0,0,5],[0,1,0,0,-5],[1,0,0,0,5],[1,1,0,0,-5]];perimeter=orthogonalPerimeter;outlineConnect=0;targetShapes=umlLifeline;portConstraint=eastwest;newEdgeStyle={&quot;curved&quot;:0,&quot;rounded&quot;:0};" vertex="1" parent="6d4hopXyQRGvVCkQvCx1-31">
          <mxGeometry x="75" y="330" width="10" height="20" as="geometry" />
        </mxCell>
        <mxCell id="6d4hopXyQRGvVCkQvCx1-42" value="wait()" style="html=1;align=left;spacingLeft=2;endArrow=block;rounded=0;edgeStyle=orthogonalEdgeStyle;curved=0;rounded=0;entryX=1;entryY=0;entryDx=0;entryDy=5;entryPerimeter=0;" edge="1" parent="6d4hopXyQRGvVCkQvCx1-31" source="1_xwEEq7RUY1qvf05ioq-13" target="6d4hopXyQRGvVCkQvCx1-41">
          <mxGeometry relative="1" as="geometry">
            <mxPoint x="80" y="320" as="sourcePoint" />
            <Array as="points">
              <mxPoint x="100" y="320" />
              <mxPoint x="100" y="335" />
            </Array>
            <mxPoint as="offset" />
          </mxGeometry>
        </mxCell>
        <mxCell id="1_xwEEq7RUY1qvf05ioq-13" value="" style="html=1;points=[[0,0,0,0,5],[0,1,0,0,-5],[1,0,0,0,5],[1,1,0,0,-5]];perimeter=orthogonalPerimeter;outlineConnect=0;targetShapes=umlLifeline;portConstraint=eastwest;newEdgeStyle={&quot;curved&quot;:0,&quot;rounded&quot;:0};" vertex="1" parent="6d4hopXyQRGvVCkQvCx1-31">
          <mxGeometry x="65" y="270" width="10" height="90" as="geometry" />
        </mxCell>
        <mxCell id="6d4hopXyQRGvVCkQvCx1-34" value="consume(ConfigurationString : String)" style="html=1;verticalAlign=bottom;endArrow=block;curved=0;rounded=0;" edge="1" parent="1">
          <mxGeometry x="0.0013" relative="1" as="geometry">
            <mxPoint x="1010" y="380" as="sourcePoint" />
            <mxPoint x="1230" y="380" as="targetPoint" />
            <mxPoint as="offset" />
          </mxGeometry>
        </mxCell>
        <mxCell id="6d4hopXyQRGvVCkQvCx1-38" value="updateStatus(&quot;running&quot;)" style="html=1;verticalAlign=bottom;endArrow=open;dashed=1;endSize=8;curved=0;rounded=0;" edge="1" parent="1">
          <mxGeometry relative="1" as="geometry">
            <mxPoint x="1231" y="400" as="sourcePoint" />
            <mxPoint x="1010" y="400" as="targetPoint" />
          </mxGeometry>
        </mxCell>
        <mxCell id="6d4hopXyQRGvVCkQvCx1-27" value="producer.send(motor_config : String)" style="html=1;verticalAlign=bottom;endArrow=block;curved=0;rounded=0;strokeColor=#FF3333;" edge="1" parent="1">
          <mxGeometry x="0.0013" relative="1" as="geometry">
            <mxPoint x="630" y="570" as="sourcePoint" />
            <mxPoint x="1009.5000000000002" y="570" as="targetPoint" />
            <mxPoint as="offset" />
          </mxGeometry>
        </mxCell>
        <mxCell id="6d4hopXyQRGvVCkQvCx1-29" value="producer.send(analyse_config : String)" style="html=1;verticalAlign=bottom;endArrow=block;curved=0;rounded=0;strokeColor=#FF3333;" edge="1" parent="1">
          <mxGeometry x="0.0013" relative="1" as="geometry">
            <mxPoint x="630" y="590" as="sourcePoint" />
            <mxPoint x="1009.5000000000002" y="590" as="targetPoint" />
            <mxPoint as="offset" />
          </mxGeometry>
        </mxCell>
        <mxCell id="6d4hopXyQRGvVCkQvCx1-45" value="" style="html=1;verticalAlign=bottom;endArrow=open;dashed=1;endSize=8;curved=0;rounded=0;" edge="1" parent="1" source="6d4hopXyQRGvVCkQvCx1-18">
          <mxGeometry relative="1" as="geometry">
            <mxPoint x="1009.4999999999998" y="510" as="sourcePoint" />
            <mxPoint x="780" y="510" as="targetPoint" />
          </mxGeometry>
        </mxCell>
        <mxCell id="6d4hopXyQRGvVCkQvCx1-20" value="" style="html=1;verticalAlign=bottom;endArrow=open;dashed=1;endSize=8;curved=0;rounded=0;" edge="1" parent="1">
          <mxGeometry relative="1" as="geometry">
            <mxPoint x="780" y="530" as="sourcePoint" />
            <mxPoint x="630" y="530" as="targetPoint" />
          </mxGeometry>
        </mxCell>
        <mxCell id="6d4hopXyQRGvVCkQvCx1-21" value="&lt;div&gt;updateStatus(&quot;success&quot;)&lt;/div&gt;" style="edgeLabel;html=1;align=center;verticalAlign=middle;resizable=0;points=[];" connectable="0" vertex="1" parent="6d4hopXyQRGvVCkQvCx1-20">
          <mxGeometry x="-0.2263" y="-3" relative="1" as="geometry">
            <mxPoint x="-22" y="-17" as="offset" />
          </mxGeometry>
        </mxCell>
        <mxCell id="6d4hopXyQRGvVCkQvCx1-46" value="" style="html=1;verticalAlign=bottom;endArrow=open;dashed=1;endSize=8;curved=0;rounded=0;" edge="1" parent="1">
          <mxGeometry relative="1" as="geometry">
            <mxPoint x="1009.5" y="420" as="sourcePoint" />
            <mxPoint x="780" y="420" as="targetPoint" />
          </mxGeometry>
        </mxCell>
        <mxCell id="1_xwEEq7RUY1qvf05ioq-1" value="updateStatus(&quot;running&quot;)" style="edgeLabel;html=1;align=center;verticalAlign=middle;resizable=0;points=[];" connectable="0" vertex="1" parent="6d4hopXyQRGvVCkQvCx1-46">
          <mxGeometry x="0.0737" y="-5" relative="1" as="geometry">
            <mxPoint y="-5" as="offset" />
          </mxGeometry>
        </mxCell>
        <mxCell id="6d4hopXyQRGvVCkQvCx1-48" value="" style="html=1;verticalAlign=bottom;endArrow=open;dashed=1;endSize=8;curved=0;rounded=0;" edge="1" parent="1">
          <mxGeometry relative="1" as="geometry">
            <mxPoint x="780" y="440" as="sourcePoint" />
            <mxPoint x="630" y="440" as="targetPoint" />
          </mxGeometry>
        </mxCell>
        <mxCell id="6d4hopXyQRGvVCkQvCx1-49" value="&lt;div&gt;messageConsumer.accept(message : String)&lt;/div&gt;" style="edgeLabel;html=1;align=center;verticalAlign=middle;resizable=0;points=[];" connectable="0" vertex="1" parent="6d4hopXyQRGvVCkQvCx1-48">
          <mxGeometry x="-0.2263" y="-3" relative="1" as="geometry">
            <mxPoint x="-62" y="-12" as="offset" />
          </mxGeometry>
        </mxCell>
        <mxCell id="1_xwEEq7RUY1qvf05ioq-10" value="updateStatus(&quot;running&quot;)" style="html=1;verticalAlign=bottom;endArrow=open;dashed=1;endSize=8;curved=0;rounded=0;exitX=0;exitY=1;exitDx=0;exitDy=-5;" edge="1" parent="1">
          <mxGeometry relative="1" as="geometry">
            <mxPoint x="239.72736842105272" y="459.99999999999636" as="targetPoint" />
            <mxPoint x="620.28" y="459.99999999999636" as="sourcePoint" />
          </mxGeometry>
        </mxCell>
        <mxCell id="6d4hopXyQRGvVCkQvCx1-37" value="updateStatus(&quot;success&quot;)" style="html=1;verticalAlign=bottom;endArrow=open;dashed=1;endSize=8;curved=0;rounded=0;exitX=0.493;exitY=0.726;exitDx=0;exitDy=0;exitPerimeter=0;" edge="1" parent="1" source="6d4hopXyQRGvVCkQvCx1-31" target="6d4hopXyQRGvVCkQvCx1-4">
          <mxGeometry relative="1" as="geometry">
            <mxPoint x="1210" y="495" as="sourcePoint" />
            <mxPoint x="1004.4473684210525" y="494.79" as="targetPoint" />
          </mxGeometry>
        </mxCell>
        <mxCell id="1_xwEEq7RUY1qvf05ioq-14" value="" style="html=1;verticalAlign=bottom;endArrow=open;dashed=1;endSize=8;curved=0;rounded=0;" edge="1" parent="1" target="6d4hopXyQRGvVCkQvCx1-18">
          <mxGeometry relative="1" as="geometry">
            <mxPoint x="1009.4999999999998" y="510" as="sourcePoint" />
            <mxPoint x="780" y="510" as="targetPoint" />
          </mxGeometry>
        </mxCell>
        <mxCell id="1_xwEEq7RUY1qvf05ioq-15" value="updateStatus(&quot;success&quot;)" style="edgeLabel;html=1;align=center;verticalAlign=middle;resizable=0;points=[];" connectable="0" vertex="1" parent="1_xwEEq7RUY1qvf05ioq-14">
          <mxGeometry x="-0.0545" y="-3" relative="1" as="geometry">
            <mxPoint x="-13" y="-7" as="offset" />
          </mxGeometry>
        </mxCell>
        <mxCell id="6d4hopXyQRGvVCkQvCx1-18" value="" style="html=1;points=[[0,0,0,0,5],[0,1,0,0,-5],[1,0,0,0,5],[1,1,0,0,-5]];perimeter=orthogonalPerimeter;outlineConnect=0;targetShapes=umlLifeline;portConstraint=eastwest;newEdgeStyle={&quot;curved&quot;:0,&quot;rounded&quot;:0};" vertex="1" parent="1">
          <mxGeometry x="775" y="510" width="10" height="20" as="geometry" />
        </mxCell>
      </root>
    </mxGraphModel>
  </diagram>
</mxfile>
